<svg width="842" height="595" viewBox="0 0 842 595" fill="none" xmlns="http://www.w3.org/2000/svg">
<g clip-path="url(#clip0_211_96)">
<g opacity="0.43" filter="url(#filter0_f_211_96)">
<path opacity="0.75" d="M568.861 127.824C568.861 127.824 565.484 23.7488 522.699 -32.124C479.986 -88.0672 422.635 -102.915 422.635 -102.915C422.635 -102.915 518.125 -74.2749 546.977 -7.70604C584.061 77.7921 583.357 136.057 583.357 136.057L568.861 127.824Z" fill="black"/>
<path opacity="0.75" d="M710.021 -113.47C710.021 -113.47 693.414 35.8523 688.981 88.6993C684.548 141.546 686.237 208.326 686.237 208.326C686.237 208.326 686.307 215.645 687.855 209.311C694.4 182.149 712.414 95.1028 710.232 49.2927C707.558 -7.35416 710.021 -113.47 710.021 -113.47Z" fill="black"/>
<path opacity="0.75" d="M859.907 27.8302C859.907 27.8302 843.3 177.153 838.867 230C834.434 282.847 836.122 349.627 836.122 349.627C836.122 349.627 836.193 356.945 837.741 350.612C844.285 323.45 862.3 236.403 860.118 190.593C857.444 134.017 859.907 27.8302 859.907 27.8302Z" fill="black"/>
<path opacity="0.75" d="M577.869 380.378C577.869 380.378 726.065 404.866 778.631 412.114C831.196 419.362 897.976 421.192 897.976 421.192C897.976 421.192 905.295 421.544 899.032 419.644C872.221 411.622 786.301 389.104 740.421 388.822C683.703 388.47 577.869 380.378 577.869 380.378Z" fill="black"/>
<path opacity="0.75" d="M787.99 -71.9528C787.99 -71.9528 739.928 -49.7866 731.765 70.8255C721.632 122.265 711.71 196.082 716.988 219.796C714.103 231.126 714.103 231.126 714.103 231.126L718.114 231.759C718.114 231.759 736.409 151.539 743.446 103.758C750.413 55.9777 752.876 -26.6352 787.99 -71.9528Z" fill="black"/>
<path opacity="0.75" d="M794.393 -48.2385C794.393 -48.2385 774.549 40.5669 762.305 114.032C750.061 187.497 745.346 230.352 747.035 265.888C748.654 262.581 749.779 268.914 751.398 263.355C761.531 228.803 771.735 145.065 779.616 92.4991C788.834 31.4893 794.253 -31.8426 794.393 -48.2385Z" fill="black"/>
<path opacity="0.75" d="M804.738 -55.3457C804.738 -55.3457 825.074 -34.024 814.871 29.7302C804.667 93.4843 803.471 144.502 798.334 174.338C793.268 204.174 775.816 238.022 780.601 256.951C785.386 275.88 778.912 287.843 778.912 287.843C778.912 287.843 798.967 244.355 807.06 190.875C815.152 137.394 828.1 78.7069 829.93 38.9485C831.759 -0.66914 812.478 -45.5644 804.738 -55.3457Z" fill="black"/>
<path opacity="0.75" d="M533.958 337.946C533.958 337.946 557.18 319.79 619.597 336.186C682.085 352.582 732.68 358.775 761.883 366.797C791.086 374.748 823.034 395.507 842.385 392.552C861.736 389.667 872.995 397.266 872.995 397.266C872.995 397.266 831.689 372.989 779.264 359.76C726.839 346.46 669.7 327.812 630.364 322.113C591.028 316.342 544.443 331.12 533.958 337.946Z" fill="black"/>
<path opacity="0.75" d="M759.35 266.592C755.268 266.099 677.511 244.425 621.779 240.485C566.047 236.544 452.331 200.797 422.354 191.578C448.953 205.16 566.539 236.614 599.12 243.792C631.701 250.97 677.652 253.292 701.155 260.047C724.728 266.803 766.035 274.402 766.035 274.402L759.35 266.592Z" fill="black"/>
<path opacity="0.75" d="M793.831 309.939C793.831 309.939 745.135 289.673 702.21 281.439C659.356 273.206 598.064 277.499 542.825 257.444C487.585 237.318 428.546 223.174 408.913 220.781C441.283 236.263 455.145 234.152 498.704 249.914C542.262 265.606 589.972 272.784 623.96 277.921C657.878 283.058 696.651 283.621 724.939 293.121C753.228 302.691 798.827 316.061 798.827 316.061L793.831 309.939Z" fill="black"/>
<path opacity="0.75" d="M830.985 350.542C830.985 350.542 766.879 326.757 728.951 321.057C690.951 315.357 547.821 312.613 455.216 286.858C510.807 304.661 614.038 310.783 661.326 324.998C708.614 339.212 808.467 356.03 841.048 358.564C839.289 354.131 830.985 350.542 830.985 350.542Z" fill="black"/>
<path opacity="0.75" d="M889.532 1.30115C889.532 1.30115 854.137 56.5407 849.704 90.0362C845.27 123.461 843.652 169.131 829.156 191.086C814.66 213.041 806.779 310.15 809.804 321.198C831.196 288.547 847.804 215.645 847.452 182.642C847.1 149.639 862.581 90.177 873.699 67.1664C884.818 44.0854 889.532 1.30115 889.532 1.30115Z" fill="black"/>
<path opacity="0.75" d="M610.872 386.5C610.872 386.5 666.111 421.895 699.607 426.399C733.032 430.832 778.701 432.451 800.656 446.947C822.611 461.443 919.72 469.394 930.768 466.298C898.117 444.906 825.215 428.299 792.212 428.581C759.209 428.862 699.747 413.451 676.737 402.333C653.726 391.215 610.872 386.5 610.872 386.5Z" fill="black"/>
<path opacity="0.75" d="M708.966 230.281C708.966 230.281 630.927 201.852 571.606 191.156C512.285 180.39 436.076 178.349 411.165 173.705C437.624 185.175 478.93 196.715 533.959 203.471C588.987 210.226 590.465 200.656 626.212 212.337C662.03 224.019 720.084 235.066 720.084 235.066L708.966 230.281Z" fill="black"/>
<path opacity="0.75" d="M658.722 189.467C658.722 189.467 532.481 142.18 391.039 148.724C456.13 154.213 503.559 154.565 554.154 167.372C604.82 180.179 667.026 195.027 667.026 195.027L658.722 189.467Z" fill="black"/>
<path opacity="0.75" d="M667.448 196.997C667.448 196.997 657.456 138.309 655.697 119.521C654.008 100.732 635.501 -5.10239 640.567 -38.2461C644.86 18.049 657.948 67.8701 661.959 91.0214C665.9 114.173 669.63 195.941 669.63 195.941L667.448 196.997Z" fill="black"/>
<path opacity="0.75" d="M239.676 74.7662C239.676 74.7662 115.264 154.987 39.2657 171.101C22.6587 178.631 16.8181 179.264 14.0033 177.927C11.1886 176.59 83.6684 132.117 111.464 118.958C139.189 105.799 239.676 74.7662 239.676 74.7662Z" fill="black"/>
<path opacity="0.75" d="M239.324 75.2588C239.324 75.2588 150.097 76.9476 109.423 85.603C68.7502 94.188 33.4954 122.476 11.7515 116.143C29.6955 127.895 89.2979 109.106 117.938 104.18C146.508 99.1842 239.324 75.2588 239.324 75.2588Z" fill="black"/>
<path opacity="0.75" d="M293.649 62.9442C293.649 62.9442 168.111 44.015 136.304 44.2261C104.568 44.4372 29.203 104.954 9.21826 99.536C31.9474 86.5881 52.6358 72.5847 78.9538 53.6555C105.342 34.6559 244.109 27.2672 293.649 62.9442Z" fill="black"/>
<path opacity="0.75" d="M333.689 60.4814C333.689 60.4814 196.681 16.5009 157.415 12.701C118.149 8.90109 51.9322 25.0155 23.081 46.1966C13.0182 51.8261 0 44.9299 0 44.9299C0 44.9299 18.9292 49.7854 35.8177 35.4301C52.7062 21.1453 116.46 -2.00608 171.418 6.1567C226.447 14.3195 300.193 29.4488 333.689 60.4814Z" fill="black"/>
<path opacity="0.75" d="M380.132 63.2961L373.025 63.4369C373.025 63.4369 265.642 8.40845 240.028 -1.30245C214.414 -11.0133 140.245 -26.776 113.153 -13.1244C86.061 0.597509 47.3582 22.1304 29.9067 18.5416C61.7838 7.42329 97.3904 -13.1948 111.253 -19.4576C125.116 -25.7204 208.995 -40.7794 293.297 9.46399C349.803 40.0744 380.132 63.2961 380.132 63.2961Z" fill="black"/>
<path opacity="0.75" d="M421.72 69.9107L411.869 69.4885C411.869 69.4885 325.667 13.4749 303.712 -1.37291C281.686 -16.1504 206.532 -75.5416 105.694 -19.8799C138.486 -46.7608 188.588 -63.1567 260.857 -34.7277C333.126 -6.29872 421.72 69.9107 421.72 69.9107Z" fill="black"/>
<path opacity="0.75" d="M451.134 77.8625C451.134 77.8625 346.918 -19.8798 302.375 -40.3571C257.761 -60.7641 197.807 -74.7675 147.141 -63.7196C170.292 -77.4415 266.487 -83.5636 321.797 -52.2494C377.106 -21.0057 458.171 69.8404 458.171 69.8404L464.645 79.9032L451.134 77.8625Z" fill="black"/>
<path opacity="0.75" d="M483.223 89.1919C483.223 89.1919 464.575 53.3741 445.716 26.9858C426.787 0.667908 369.507 -76.1045 326.793 -85.6042C358.599 -85.6042 423.128 -38.809 449.797 -0.598724C476.467 37.5412 494.622 92.7807 494.622 92.7807L483.223 89.1919Z" fill="black"/>
<path opacity="0.75" d="M510.244 99.1138C510.244 99.1138 500.252 55.1333 479.564 13.7564C458.875 -27.6205 410.672 -75.612 360.429 -89.8265C339.881 -97.7782 311.875 -87.9265 293.719 -80.6082C310.256 -92.8523 344.526 -109.459 385.199 -90.3191C425.872 -71.2491 486.108 -22.1317 508.344 33.6004C530.511 89.2621 529.948 105.447 529.948 105.447L510.244 99.1138Z" fill="black"/>
<path opacity="0.75" d="M542.192 113.821L543.177 107.417C543.177 107.417 534.099 7.2122 449.446 -58.9345C400.539 -97.1447 370.773 -102.563 361.273 -105.519C391.18 -109.248 461.69 -70.6157 496.311 -31.0684C526.922 3.83449 550.073 46.6891 554.295 107.488C551.128 116.917 550.284 117.902 550.284 117.902L542.192 113.821Z" fill="black"/>
<path opacity="0.75" d="M507.781 -100.1C507.781 -100.1 623.045 10.9418 606.72 150.202C621.919 160.475 620.934 164.768 620.934 164.768C620.934 164.768 660.27 24.1007 507.781 -100.1Z" fill="black"/>
<path opacity="0.75" d="M645.423 178.349C645.423 178.349 686.025 -20.865 666.885 -84.971C661.326 -126.418 609.183 -135.425 592.083 -129.233C612.208 -124.378 655.133 -117.692 658.019 -77.5119C662.733 -11.0837 631.278 166.246 631.278 166.246L645.423 178.349Z" fill="black"/>
<path opacity="0.75" d="M253.117 72.233C253.117 72.233 164.382 152.876 103.653 181.094C73.3243 198.615 63.4023 202.415 63.4023 202.415C63.4023 202.415 132.223 182.853 177.4 156.113C222.647 129.372 259.379 70.896 259.379 70.896L253.117 72.233Z" fill="black"/>
<path opacity="0.75" d="M269.231 66.9552C269.231 66.9552 237.917 122.547 211.107 139.928C184.296 157.238 121.597 198.052 109.705 223.948C126.171 209.663 178.596 162.446 210.895 151.539C243.195 140.631 274.79 84.0548 280.138 67.2367C275.001 67.0256 269.231 66.9552 269.231 66.9552Z" fill="black"/>
<path opacity="0.75" d="M294.071 65.0553C294.071 65.0553 279.997 102.492 264.939 117.762C249.95 133.032 203.436 169.553 175.781 193.127C148.126 216.7 146.156 225.848 146.156 225.848C146.156 225.848 199.566 174.831 212.514 172.086C225.462 169.342 287.668 128.317 290.623 111.006C293.579 93.6954 299.841 64.7035 299.841 64.7035L294.071 65.0553Z" fill="black"/>
<path opacity="0.75" d="M596.587 147.105C596.587 147.105 414.12 123.461 322.43 234.433C352.266 183.064 419.539 120.154 576.109 135.002C581.246 139.646 596.587 147.105 596.587 147.105Z" fill="black"/>
<path opacity="0.75" d="M491.596 92.2881C491.596 92.2881 368.451 106.784 338.122 155.69C307.793 204.526 284.853 237.177 267.05 239.429C287.668 213.322 308.426 195.378 321.093 160.757C333.759 126.135 400.68 87.3623 476.467 87.6437C483.223 89.1918 491.596 92.2881 491.596 92.2881Z" fill="black"/>
<path opacity="0.75" d="M422.846 73.6403C422.846 73.6403 309.974 96.7916 305.893 135.494C301.812 174.197 266.698 208.256 252.272 214.096C295.267 190.312 315.815 162.023 322.57 134.65C329.326 107.277 382.665 95.1731 400.117 90.1769C417.639 85.1807 436.92 77.4402 436.92 77.4402L422.846 73.6403Z" fill="black"/>
<path opacity="0.75" d="M369.858 65.0553C369.858 65.0553 318.7 79.0587 298.293 125.995C277.886 172.931 237.776 173.283 224.547 206.356C241.858 192.845 267.753 166.175 294.775 151.75C321.797 137.324 363.385 85.8141 370.492 81.592C377.599 77.3698 379.569 67.096 379.569 67.096L369.858 65.0553Z" fill="black"/>
<path opacity="0.75" d="M529.947 108.825C529.947 108.825 426.083 115.299 386.325 143.868C346.566 172.368 349.381 221.626 330.03 246.959C359.233 224.23 368.873 186.019 379.358 168.638C389.843 151.257 414.683 137.254 447.757 136.691C480.83 136.128 528.329 124.235 542.614 117.199C532.058 111.639 529.947 108.825 529.947 108.825Z" fill="black"/>
<path opacity="0.75" d="M959.549 513.305C959.549 513.305 959.056 512.601 958.142 511.194C957.227 509.786 955.749 507.675 953.92 505.001C950.19 499.583 944.631 491.631 937.383 481.639C922.887 461.654 901.565 433.506 874.473 400.996C860.892 384.741 845.904 367.36 829.578 349.486C813.252 331.542 795.59 313.035 776.801 294.387C758.013 275.81 738.028 257.092 717.058 238.866C706.573 229.718 695.807 220.782 684.9 211.985C673.922 203.189 662.804 194.534 651.404 186.23C640.004 177.857 628.464 169.764 616.783 162.024C605.101 154.283 593.209 146.824 581.246 139.787C557.321 125.643 532.973 113.188 508.766 102.632C484.489 92.1474 460.353 83.7031 436.92 77.5106C413.487 71.2478 390.899 67.2368 369.858 65.1961C359.373 64.1406 349.24 63.5776 339.6 63.4369C338.404 63.4369 337.207 63.4369 336.011 63.3665C335.448 63.3665 334.815 63.3665 334.252 63.3665C333.689 63.3665 333.055 63.3665 332.493 63.3665C330.17 63.3665 327.848 63.4369 325.526 63.4369C320.952 63.5776 316.519 63.7184 312.226 63.9998C307.934 64.211 303.782 64.6332 299.771 64.9146C297.801 65.1257 295.83 65.3368 293.93 65.5479C292.945 65.6183 292.03 65.7591 291.045 65.8294C290.131 65.9702 289.145 66.0405 288.231 66.1813C286.401 66.3924 284.571 66.6739 282.812 66.885C281.053 67.1664 279.294 67.4479 277.675 67.659C275.986 67.9405 274.368 68.1516 272.749 68.4331C271.131 68.7145 269.583 68.996 268.105 69.2775C256.002 71.5293 246.572 73.9218 240.169 75.6107C237.002 76.4551 234.539 77.2292 232.921 77.6514C231.302 78.144 230.458 78.3551 230.458 78.3551C229.895 78.4958 229.332 78.2143 229.191 77.6514C229.05 77.0884 229.332 76.5255 229.895 76.3848C229.895 76.3848 230.739 76.1033 232.428 75.6811C234.047 75.1885 236.509 74.4848 239.746 73.57C246.15 71.8108 255.579 69.3479 267.824 67.0257C269.372 66.7442 270.92 66.4628 272.538 66.1813C274.157 65.8998 275.775 65.6183 277.464 65.3369C279.153 65.0554 280.912 64.7739 282.671 64.4924C284.431 64.2813 286.26 63.9999 288.09 63.7184C289.005 63.5776 289.919 63.4369 290.905 63.3665C291.819 63.2962 292.805 63.1554 293.79 63.0147C295.69 62.8036 297.66 62.5925 299.701 62.3814C303.712 62.0295 307.863 61.6073 312.226 61.3962C316.519 61.1147 321.022 60.974 325.596 60.7629C327.919 60.7629 330.241 60.6925 332.563 60.6925C333.126 60.6925 333.759 60.6925 334.322 60.6925C334.885 60.6925 335.518 60.6925 336.081 60.6925C337.278 60.6925 338.474 60.6925 339.67 60.7629C349.381 60.9036 359.585 61.3962 370.14 62.3814C391.321 64.3517 414.12 68.222 437.764 74.344C461.338 80.4661 485.756 88.84 510.244 99.2546C534.733 109.669 559.291 122.124 583.428 136.198C595.461 143.235 607.424 150.624 619.246 158.364C631.067 166.105 642.678 174.197 654.148 182.501C665.619 190.804 676.878 199.46 687.925 208.186C698.973 216.982 709.81 225.918 720.436 234.996C741.617 253.151 761.813 271.799 780.812 290.376C799.812 308.954 817.615 327.461 834.152 345.405C850.618 363.278 865.818 380.659 879.54 396.915C906.984 429.425 928.516 457.573 943.224 477.557C950.542 487.55 956.242 495.501 960.042 500.99C961.942 503.734 963.419 505.846 964.334 507.253C965.319 508.66 965.812 509.434 965.812 509.434C966.938 511.123 966.516 513.375 964.827 514.501C962.997 515.486 960.745 514.993 959.549 513.305Z" fill="black"/>
<path opacity="0.75" d="M959.549 513.305C959.549 513.305 959.056 512.601 958.142 511.194C957.227 509.786 955.749 507.675 953.92 505.001C950.19 499.583 944.631 491.631 937.383 481.639C922.887 461.654 901.565 433.506 874.473 400.996C860.892 384.741 845.904 367.36 829.578 349.486C813.252 331.542 795.59 313.035 776.801 294.387C758.013 275.81 738.028 257.092 717.058 238.866C706.573 229.718 695.807 220.782 684.9 211.985C673.922 203.189 662.804 194.534 651.404 186.23C640.004 177.857 628.464 169.764 616.783 162.024C605.101 154.283 593.209 146.824 581.246 139.787C557.321 125.643 532.973 113.188 508.766 102.632C484.489 92.1474 460.353 83.7031 436.92 77.5106C413.487 71.2478 390.899 67.2368 369.858 65.1961C359.373 64.1406 349.24 63.5776 339.6 63.4369C338.404 63.4369 337.207 63.4369 336.011 63.3665C335.448 63.3665 334.815 63.3665 334.252 63.3665C333.689 63.3665 333.055 63.3665 332.493 63.3665C330.17 63.3665 327.848 63.4369 325.526 63.4369C320.952 63.5776 316.519 63.7184 312.226 63.9998C307.934 64.211 303.782 64.6332 299.771 64.9146C297.801 65.1257 295.83 65.3368 293.93 65.5479C292.945 65.6183 292.03 65.7591 291.045 65.8294C290.131 65.9702 289.145 66.0405 288.231 66.1813C286.401 66.3924 284.571 66.6739 282.812 66.885C281.053 67.1664 279.294 67.4479 277.675 67.659C275.986 67.9405 274.368 68.1516 272.749 68.4331C271.131 68.7145 269.583 68.996 268.105 69.2775C256.002 71.5293 246.572 73.9218 240.169 75.6107C237.002 76.4551 234.539 77.2292 232.921 77.6514C231.302 78.144 230.458 78.3551 230.458 78.3551C229.895 78.4958 229.332 78.2143 229.191 77.6514C229.05 77.0884 229.332 76.5255 229.895 76.3848C229.895 76.3848 230.739 76.1033 232.428 75.6811C234.047 75.1885 236.509 74.4848 239.746 73.57C246.15 71.8108 255.579 69.3479 267.824 67.0257C269.372 66.7442 270.92 66.4628 272.538 66.1813C274.157 65.8998 275.775 65.6183 277.464 65.3369C279.153 65.0554 280.912 64.7739 282.671 64.4924C284.431 64.2813 286.26 63.9999 288.09 63.7184C289.005 63.5776 289.919 63.4369 290.905 63.3665C291.819 63.2962 292.805 63.1554 293.79 63.0147C295.69 62.8036 297.66 62.5925 299.701 62.3814C303.712 62.0295 307.863 61.6073 312.226 61.3962C316.519 61.1147 321.022 60.974 325.596 60.7629C327.919 60.7629 330.241 60.6925 332.563 60.6925C333.126 60.6925 333.759 60.6925 334.322 60.6925C334.885 60.6925 335.518 60.6925 336.081 60.6925C337.278 60.6925 338.474 60.6925 339.67 60.7629C349.381 60.9036 359.585 61.3962 370.14 62.3814C391.321 64.3517 414.12 68.222 437.764 74.344C461.338 80.4661 485.756 88.84 510.244 99.2546C534.733 109.669 559.291 122.124 583.428 136.198C595.461 143.235 607.424 150.624 619.246 158.364C631.067 166.105 642.678 174.197 654.148 182.501C665.619 190.804 676.878 199.46 687.925 208.186C698.973 216.982 709.81 225.918 720.436 234.996C741.617 253.151 761.813 271.799 780.812 290.376C799.812 308.954 817.615 327.461 834.152 345.405C850.618 363.278 865.818 380.659 879.54 396.915C906.984 429.425 928.516 457.573 943.224 477.557C950.542 487.55 956.242 495.501 960.042 500.99C961.942 503.734 963.419 505.846 964.334 507.253C965.319 508.66 965.812 509.434 965.812 509.434C966.938 511.123 966.516 513.375 964.827 514.501C962.997 515.486 960.745 514.993 959.549 513.305Z" fill="black"/>
</g>
</g>
<defs>
<filter id="filter0_f_211_96" x="-16" y="-147" width="1043.62" height="678.005" filterUnits="userSpaceOnUse" color-interpolation-filters="sRGB">
<feFlood flood-opacity="0" result="BackgroundImageFix"/>
<feBlend mode="normal" in="SourceGraphic" in2="BackgroundImageFix" result="shape"/>
<feGaussianBlur stdDeviation="8" result="effect1_foregroundBlur_211_96"/>
</filter>
<clipPath id="clip0_211_96">
<rect width="842" height="595" fill="white"/>
</clipPath>
</defs>
</svg>
